<svg data-v-0dd9719b="" version="1.0" xmlns="http://www.w3.org/2000/svg" xmlns:xlink="http://www.w3.org/1999/xlink" width="100%" height="100%" viewBox="0 0 340.000000 250.000000" preserveAspectRatio="xMidYMid meet" color-interpolation-filters="sRGB" style="margin: auto;"> <rect data-v-0dd9719b="" x="0" y="0" width="100%" height="100%" fill="#fff" fill-opacity="1" class="background"></rect> <rect data-v-0dd9719b="" x="0" y="0" width="100%" height="100%" fill="url(#watermark)" fill-opacity="1" class="watermarklayer"></rect> <g data-v-0dd9719b="" fill="#d981b5" class="icon-text-wrapper icon-svg-group iconsvg" transform="translate(48.85712432861328,80.0116958618164)"><g class="iconsvg-imagesvg" transform="translate(0,0)"><g><rect fill="#d981b5" fill-opacity="0" stroke-width="2" x="0" y="0" width="60" height="89.97660608241857" class="image-rect"></rect> <svg x="0" y="0" width="60" height="89.97660608241857" filtersec="colorsb9447582211" class="image-svg-svg primary" style="overflow: visible;"><svg xmlns="http://www.w3.org/2000/svg" viewBox="0 0 115.52999877929688 173.25"><title>6199</title><g id="a7f6af1c-faf8-4f2a-b6f8-a92aa4f2491f"><g id="e42abd70-7ff9-4a82-816a-a38c79724168"><path d="M65,0H50.53a50.53,50.53,0,0,0,0,101.06h7.2a14.44,14.44,0,0,1,0-28.87h-7.2A21.65,21.65,0,0,1,28.87,50.55v0A21.66,21.66,0,0,1,50.53,28.87H65A21.66,21.66,0,0,1,86.63,50.53a14.43,14.43,0,0,0,28.85,0V50.3h0v-.24A50.52,50.52,0,0,0,65,0Z" fill="#d981b5"></path><path d="M71.83,86.25a14.45,14.45,0,0,1-14.06,14.81H65a21.65,21.65,0,0,1,0,43.3H50.53a21.65,21.65,0,0,1-21.66-21.64h0a14.42,14.42,0,0,0-28.84,0H0v.68a50.52,50.52,0,0,0,50.51,49.85H65A50.53,50.53,0,0,0,65,72.19H57.77A14.45,14.45,0,0,1,71.83,86.25Z" fill="#b4d564"></path><path d="M43.67,87a14.45,14.45,0,0,0,14.06,14.06h0a14.44,14.44,0,0,0,0-28.87h0A14.45,14.45,0,0,0,43.67,87Z" fill="#996d4a"></path></g></g></svg></svg> <!----></g></g> <g transform="translate(67,16.547677993774414)"><g data-gra="path-name" fill-rule="" class="tp-name iconsvg-namesvg" transform="translate(0,0)"><g transform="scale(1)"><g><path d="M8.35 3.69L8.35 3.69Q8.48 3.82 10.2 3.65L10.2 3.65Q18.02 2.94 23.95 0.7L23.95 0.7Q25.27 0.22 25.71 0.18 26.15 0.13 26.94 0.48L26.94 0.48Q32.04 2.77 37.92 3.56L37.92 3.56Q39.42 3.78 39.68 3.74 39.95 3.69 40.03 3.25L40.03 3.25Q40.17 2.5 40.72 1.69 41.26 0.88 41.92 0.44L41.92 0.44Q42.67-0.04 42.36-0.18L42.36-0.18Q42.1-0.26 40.34-0.35L40.34-0.35Q35.64-0.53 32.04-1.23L32.04-1.23Q30.28-1.54 30.17-1.93 30.06-2.33 31.33-3.43L31.33-3.43Q32.78-4.75 33.05-5.01L33.05-5.01Q34.23-6.11 34.8-6.11L34.8-6.11Q36.65-6.11 34.85-8.04L34.85-8.04Q33.97-8.96 34.01-9.34 34.06-9.71 35.16-10.11L35.16-10.11Q36.47-10.59 36.69-10.99 36.91-11.38 36.83-13.01L36.83-13.01Q36.69-14.5 36.69-18.9L36.69-18.9Q36.69-22.41 36.78-22.96 36.87-23.51 37.49-23.86L37.49-23.86Q37.97-24.17 37.75-24.59 37.53-25 36.43-25.97L36.43-25.97Q35.11-27.16 34.58-27.33 34.06-27.51 33.57-26.89L33.57-26.89Q32.48-25.53 32.06-25.36 31.64-25.18 29.27-25.18L29.27-25.18Q26.59-25.18 26.3-25.69 26.02-26.19 27.69-27.95L27.69-27.95Q28.17-28.52 28.83-28.59 29.49-28.65 34.5-28.7L34.5-28.7Q39.16-28.74 40.06-28.81 40.96-28.87 41.09-29.27L41.09-29.27Q41.18-29.58 40.47-30.26 39.77-30.94 38.19-32.08L38.19-32.08Q37.31-32.7 36.98-32.65 36.65-32.61 35.86-31.64L35.86-31.64Q34.76-30.23 34.23-30.06L34.23-30.06Q33.97-29.97 24.52-29.97L24.52-29.97Q14.37-29.97 11.73-30.19L11.73-30.19Q11.07-30.28 11.07-30.1L11.07-30.1Q11.07-29.97 11.51-29.14 11.95-28.3 12.17-28.23 12.39-28.17 13.75-28.34L13.75-28.34Q16.3-28.65 19.64-28.72 22.98-28.78 23.33-28.52 23.69-28.26 23.69-27.49 23.69-26.72 23.38-25.97L23.38-25.97Q23.16-25.44 22.83-25.33 22.5-25.22 20.96-25.18L20.96-25.18Q19.29-25.18 18.76-25.31 18.24-25.44 16.26-26.28L16.26-26.28Q14.59-27.03 14.41-26.94 14.24-26.85 14.37-25.44L14.37-25.44Q14.68-22.28 14.68-15.21L14.68-15.21Q14.68-9.67 14.81-9.36L14.81-9.36Q14.99-9.18 15.56-9.23L15.56-9.23Q17.49-9.45 18.54-10.37L18.54-10.37Q18.98-10.77 19.4-10.68 19.82-10.59 19.82-10.11L19.82-10.11Q19.82-9.18 16.7-6.42 13.58-3.65 10.9-2.24L10.9-2.24Q10.2-1.8 10.09-1.69 9.98-1.58 10.15-1.36L10.15-1.36Q10.42-1.05 12.85-2 15.29-2.94 17.89-4.39L17.89-4.39Q19.12-5.05 19.53-4.97 19.95-4.88 21.23-3.6L21.23-3.6Q22.28-2.55 22.5-2.22 22.72-1.89 22.54-1.54L22.54-1.54Q22.19-0.79 18.26 0.57 14.33 1.93 10.2 2.77L10.2 2.77Q8.22 3.16 8.22 3.43L8.22 3.43Q8.22 3.52 8.35 3.69ZM25.88-3.43L25.88-3.43Q25.14-3.03 23.16-4.09L23.16-4.09Q21.62-4.92 21.18-5.41 20.74-5.89 21.18-6.28L21.18-6.28Q21.67-6.77 25.05-6.7 28.43-6.64 28.56-6.15L28.56-6.15Q28.65-5.76 27.73-4.79 26.81-3.82 25.88-3.43ZM29.93-8.13L29.93-8.13Q29.49-7.91 26.89-7.89 24.3-7.87 23.95-8.04L23.95-8.04Q23.69-8.22 23.71-8.5 23.73-8.79 24.04-9.07 24.35-9.36 24.74-9.45L24.74-9.45Q25.49-9.58 25.44-9.89L25.44-9.89Q25.4-10.06 25.18-10.11L25.18-10.11Q24.87-10.2 25.27-10.55L25.27-10.55Q25.49-10.72 25.75-10.81L25.75-10.81Q26.63-11.07 29.29-10.92 31.95-10.77 32.12-10.46L32.12-10.46Q32.26-10.2 31.46-9.34 30.67-8.48 29.93-8.13ZM32.12-12.3L32.12-12.3Q31.82-12.13 25.62-12.15 19.42-12.17 19.16-12.35L19.16-12.35Q18.59-12.7 18.61-13.75 18.63-14.81 19.25-15.12L19.25-15.12Q19.6-15.29 25.64-15.29 31.68-15.29 32.04-15.12L32.04-15.12Q32.65-14.81 32.67-13.73 32.7-12.66 32.12-12.3ZM32.04-16.66L32.04-16.66Q31.68-16.44 25.64-16.44 19.6-16.44 19.25-16.66L19.25-16.66Q18.63-16.96 18.61-18.04 18.59-19.12 19.16-19.47L19.16-19.47Q19.47-19.64 25.64-19.64 31.82-19.64 32.12-19.47L32.12-19.47Q32.7-19.12 32.67-18.04 32.65-16.96 32.04-16.66ZM32.04-21.05L32.04-21.05Q31.68-20.83 25.64-20.83 19.6-20.83 19.25-21.05L19.25-21.05Q18.81-21.27 18.65-21.99 18.5-22.72 18.81-23.29L18.81-23.29Q19.03-23.73 19.38-23.82L19.38-23.82Q20-23.95 25.66-23.95L25.66-23.95Q25.88-23.95 26.24-23.95L26.24-23.95Q31.07-23.95 31.86-23.77 32.65-23.6 32.65-22.63L32.65-22.63Q32.65-22.5 32.65-22.41L32.65-22.41Q32.65-21.31 32.04-21.05ZM2.42 3.43L2.42 3.43Q2.86 4.26 4.75 1.23L4.75 1.23Q6.77-1.98 7.91-5.41L7.91-5.41Q9.14-9.27 9.56-13.23 9.98-17.18 10.02-25.58L10.02-25.58Q10.06-31.25 10.15-32.15 10.24-33.05 10.68-33.27L10.68-33.27Q10.85-33.35 21.69-33.38 32.52-33.4 37.13-33.31L37.13-33.31Q38.14-33.27 39.99-33.38 41.84-33.49 42.01-33.57L42.01-33.57Q42.93-34.1 40.78-35.99L40.78-35.99Q40.43-36.3 39.99-36.65L39.99-36.65Q38.41-37.88 38.01-37.84 37.62-37.79 36.43-36.21L36.43-36.21Q36.3-36.04 36.12-35.73L36.12-35.73Q35.64-35.02 34.98-34.85L34.98-34.85Q33.97-34.63 26.32-34.63L26.32-34.63Q24.17-34.63 22.9-34.63L22.9-34.63Q11.51-34.63 10.72-34.76L10.72-34.76Q10.11-34.94 8.17-35.77L8.17-35.77Q5.93-36.78 5.8-36.61L5.8-36.61Q5.76-36.52 5.8-35.99L5.8-35.99Q6.02-32.83 5.98-23.73 5.93-14.63 5.63-11.12L5.63-11.12Q4.97-3.16 2.64 2.5L2.64 2.5Q2.33 3.25 2.42 3.43ZM50.84 3.69L50.84 3.69Q51.55 3.87 52.76 3.45 53.96 3.03 54.54 2.46L54.54 2.46Q54.76 2.24 54.78 1.89 54.8 1.54 54.71-0.35L54.71-0.35Q54.58-3.08 54.58-15.82L54.58-15.82Q54.54-28.48 54.71-29.27L54.71-29.27Q54.8-29.66 55.2-29.93L55.2-29.93Q55.24-29.93 55.28-29.97L55.28-29.97Q56.25-30.59 54.32-31.25L54.32-31.25Q53.35-31.6 51.46-32.08L51.46-32.08Q50.23-32.39 50.12-32.32 50.01-32.26 50.1-31.38L50.1-31.38Q50.45-28.48 50.45-15.38L50.45-15.38Q50.45-2.9 50.27-0.57L50.27-0.57Q50.1 3.12 50.32 3.47L50.32 3.47Q50.41 3.6 50.84 3.69ZM78.4 3.6L78.4 3.6Q78.53 3.74 79.5 3.56L79.5 3.56Q82.97 3.03 83.8 1.23L83.8 1.23Q84.16 0.53 84.2-0.75L84.2-0.75Q84.29-2.55 84.33-15.6L84.33-15.6Q84.38-31.25 84.51-31.46L84.51-31.46Q84.81-31.99 85.47-32.3L85.47-32.3Q86.53-32.78 85.39-33.88L85.39-33.88Q84.81-34.41 83.63-35.33L83.63-35.33Q82.44-36.21 82.07-36.25 81.69-36.3 81.12-35.55L81.12-35.55Q80.99-35.38 80.77-35.07L80.77-35.07Q80.11-34.23 79.5-34.1L79.5-34.1Q78.75-33.88 74.49-33.97L74.49-33.97Q73.52-33.97 72.95-33.97L72.95-33.97Q66.45-33.97 65.48-34.1L65.48-34.1Q64.47-34.19 64.38-34.1 64.29-34.01 64.73-33.18L64.73-33.18Q65.17-32.26 65.35-32.15 65.52-32.04 66.62-32.21L66.62-32.21Q69.26-32.56 74.58-32.61L74.58-32.61Q78.66-32.65 79.28-32.59 79.89-32.52 80.11-32.04L80.11-32.04Q80.33-31.68 80.33-17.01 80.33-2.33 80.11-1.93L80.11-1.93Q79.85-1.36 79.08-1.25 78.31-1.14 75.54-1.36L75.54-1.36Q72.86-1.54 72.82-1.36L72.82-1.36Q72.82-1.32 72.82-1.19L72.82-1.19Q72.86-0.92 73.39-0.79L73.39-0.79Q75.85-0.26 76.9 0.55 77.96 1.36 78.22 2.94L78.22 2.94Q78.27 3.38 78.4 3.6ZM59.94-29.22L59.94-29.22Q61.79-28.52 62.45-30.15L62.45-30.15Q63.15-31.86 61.92-33.88L61.92-33.88Q61.57-34.41 61.13-34.85L61.13-34.85Q59.41-36.56 56.21-37.66L56.21-37.66Q53.96-38.45 54.14-37.71L54.14-37.71Q54.18-37.49 54.49-37.13L54.49-37.13Q57.7-33.57 58.97-30.01L58.97-30.01Q59.19-29.44 59.94-29.22ZM97.21 3.78L97.21 3.78Q99.45 4.26 100.26 1.89 101.07-0.48 99.93-4.22L99.93-4.22Q99.23-6.55 99.25-7.87 99.27-9.18 100.06-12.08L100.06-12.08Q101.43-17.09 105.03-27.69L105.03-27.69Q105.21-28.13 105.23-28.34 105.25-28.56 105.16-28.65 105.07-28.74 104.81-28.7 104.55-28.65 102.22-23.29L102.22-23.29Q101.82-22.41 101.12-20.83L101.12-20.83Q96.77-11.12 95.98-10.02L95.98-10.02Q95.41-9.23 94.61-9.27L94.61-9.27Q94.57-9.27 94.48-9.27L94.48-9.27Q94.26-9.27 94.13-9.27L94.13-9.27Q93.43-9.27 93.21-9.18 92.99-9.1 92.99-8.79L92.99-8.79Q92.99-8.35 93.69-8.22L93.69-8.22Q96.68-7.91 95.89-0.26L95.89-0.26Q95.67 1.71 95.95 2.64 96.24 3.56 97.21 3.78ZM113.77 3.08L113.77 3.08Q113.82 3.38 113.84 3.49 113.86 3.6 113.99 3.69 114.13 3.78 114.35 3.74L114.35 3.74Q117.73 3.21 118.63 2.04 119.53 0.88 119.53-2.99L119.53-2.99Q119.53-5.49 119.58-5.71L119.58-5.71Q119.84-6.46 121.38-6.55L121.38-6.55Q121.68-6.55 126.21-6.59L126.21-6.59Q131-6.64 131.77-6.7 132.54-6.77 132.76-7.12L132.76-7.12Q133.02-7.69 130.34-9.98L130.34-9.98Q130.25-10.06 130.12-10.2L130.12-10.2Q128.98-11.12 128.63-11.03 128.28-10.94 127.18-9.45L127.18-9.45Q127.05-9.23 126.96-9.1L126.96-9.1Q126.3-8.13 125.86-8 125.42-7.87 123.13-7.82L123.13-7.82Q120.45-7.82 120.19-7.95L120.19-7.95Q119.66-8.22 119.64-8.88 119.62-9.54 120.1-9.84L120.1-9.84Q120.23-9.93 120.89-10.59L120.89-10.59Q121.38-11.07 122.34-11.47L122.34-11.47Q123.4-11.87 124.83-12.46 126.25-13.05 126.52-13.14L126.52-13.14Q127.92-13.71 128.23-13.75L128.23-13.75Q129.24-13.97 129.48-14.11 129.73-14.24 129.64-14.5L129.64-14.5Q129.42-15.12 127.75-16.57L127.75-16.57Q126.74-17.49 126.67-17.86 126.61-18.24 127.4-18.63L127.4-18.63Q127.97-18.98 128.03-19.2 128.1-19.42 128.06-20.52L128.06-20.52Q127.88-23.2 128.03-24.24 128.19-25.27 128.72-25.62L128.72-25.62Q129.55-26.1 129.33-26.63 129.11-27.16 127.44-28.48L127.44-28.48Q126.04-29.62 125.64-29.64 125.24-29.66 124.41-28.61L124.41-28.61Q123.75-27.73 123.49-27.6L123.49-27.6Q123-27.38 118.92-27.38L118.92-27.38Q118.26-27.38 117.69-27.38L117.69-27.38Q112.9-27.38 112.24-27.47 111.58-27.55 109.56-28.43L109.56-28.43Q108.06-29.05 107.91-28.98 107.75-28.92 107.84-27.51L107.84-27.51Q108.15-23.29 107.89-19.12L107.89-19.12Q107.8-17.58 108.15-17.29 108.5-17.01 109.86-17.36L109.86-17.36Q111.8-17.84 111.97-18.72L111.97-18.72Q112.1-19.38 112.5-19.51L112.5-19.51Q113.12-19.73 117.95-19.73L117.95-19.73Q122.43-19.73 123.18-19.58 123.93-19.42 123.93-18.59L123.93-18.59Q123.93-17.93 124.41-17.93L124.41-17.93Q125.07-17.93 124.52-16.9 123.97-15.86 123.13-15.64L123.13-15.64Q122.74-15.56 116.35-15.58 109.95-15.6 108.33-15.69L108.33-15.69Q106.22-15.82 106.22-15.69 106.22-15.56 106.61-14.7 107.01-13.84 107.09-13.75L107.09-13.75Q107.31-13.67 108.46-13.84L108.46-13.84Q111.45-14.24 116.28-14.28L116.28-14.28Q121.38-14.37 121.68-13.84L121.68-13.84Q121.9-13.4 120.06-12.04L120.06-12.04Q119.18-11.43 118.7-11.34 118.21-11.25 116.85-11.43L116.85-11.43Q115.62-11.6 115.51-11.49 115.4-11.38 115.44-10.11L115.44-10.11Q115.44-10.02 115.44-9.89L115.44-9.89Q115.49-8.39 115.14-8.13L115.14-8.13Q114.7-7.82 111.71-7.82L111.71-7.82 111.27-7.82Q106-7.82 103.49-8.09L103.49-8.09Q102.66-8.17 102.66-8L102.66-8Q102.66-7.87 103.1-7.03L103.1-7.03Q103.54-6.2 103.78-6.11 104.02-6.02 105.56-6.24L105.56-6.24Q108.37-6.59 111.8-6.59L111.8-6.59Q114.79-6.59 115.2-6.26 115.62-5.93 115.58-3.65L115.58-3.65Q115.53-1.63 115.14-1.3 114.74-0.97 112.54-1.1L112.54-1.1Q109.03-1.32 108.94-1.14L108.94-1.14Q108.76-0.75 109.25-0.66L109.25-0.66Q111.58-0.18 112.52 0.62 113.47 1.41 113.77 3.08ZM123.4-21.09L123.4-21.09Q123.09-20.92 117.93-20.94 112.76-20.96 112.5-21.14L112.5-21.14Q111.88-21.49 111.93-23.55 111.97-25.62 112.59-25.93L112.59-25.93Q112.94-26.1 117.95-26.1 122.96-26.1 123.31-25.93L123.31-25.93Q123.97-25.62 123.99-23.55 124.01-21.49 123.4-21.09ZM96.81-20.65L96.81-20.65Q98.13-20.17 98.94-20.9 99.76-21.62 99.56-22.94 99.36-24.26 98.17-25.22L98.17-25.22Q96.64-26.5 94.04-26.94L94.04-26.94Q92.46-27.2 92.59-26.67L92.59-26.67Q92.64-26.5 92.9-26.24L92.9-26.24Q93.91-25.27 94.83-23.84 95.76-22.41 96.02-21.45L96.02-21.45Q96.11-20.92 96.81-20.65ZM105.07-30.45L105.07-30.45Q105.21-30.32 105.42-30.37L105.42-30.37Q106.74-30.63 109.95-30.85L109.95-30.85Q112.19-30.98 121.38-30.98L121.38-30.98Q129.46-30.98 130.69-31.03 131.92-31.07 132.14-31.42L132.14-31.42Q132.32-31.73 131.4-32.78 130.47-33.84 129.16-34.85L129.16-34.85Q128.32-35.42 128.06-35.33 127.79-35.24 126.96-34.1L126.96-34.1Q125.9-32.61 125.46-32.41 125.02-32.21 122.61-32.21L122.61-32.21Q120.54-32.26 120.17-32.37 119.79-32.48 119.62-33.13L119.62-33.13Q119.27-34.76 120.32-35.68L120.32-35.68Q120.94-36.3 119.66-36.78L119.66-36.78Q118.83-37.09 116.76-37.62L116.76-37.62Q115.36-37.97 115.27-37.79L115.27-37.79Q115.18-37.66 115.27-37L115.27-37Q115.71-33.05 114.96-32.43L114.96-32.43Q114.74-32.21 111.03-32.21 107.31-32.21 105.38-32.39L105.38-32.39Q104.28-32.48 104.24-32.43L104.24-32.43Q104.15-32.34 104.52-31.49 104.9-30.63 105.07-30.45ZM100.68-30.59L100.68-30.59Q101.25-30.32 101.95-30.45 102.66-30.59 103.01-30.98L103.01-30.98Q104.33-32.48 103.1-34.26 101.87-36.04 99.01-36.78L99.01-36.78Q95.98-37.57 95.98-37L95.98-37Q95.98-36.69 96.81-35.82L96.81-35.82Q98.96-33.57 99.93-31.42L99.93-31.42Q100.28-30.72 100.68-30.59ZM162.33 3.12L162.42 3.74Q162.51 3.91 163.59 3.67 164.66 3.43 165.37 3.08L165.37 3.08Q167.04 2.29 167.48 0.26L167.48 0.26Q167.56-0.04 167.65-6.64L167.65-6.64Q167.7-12.7 167.92-13.36L167.92-13.36Q168.09-13.89 168.93-13.84L168.93-13.84Q169.41-13.84 169.45-13.84L169.45-13.84Q171.25-13.84 171.25-12.61L171.25-12.61Q171.25-11.34 174.16-12.44L174.16-12.44Q175.17-12.79 175.34-13.07 175.52-13.36 175.47-14.46L175.47-14.46Q175.17-21.75 175.28-23.73 175.39-25.71 176.18-26.24L176.18-26.24Q176.84-26.67 176.46-27.29 176.09-27.91 174.29-29.31L174.29-29.31Q173.23-30.15 172.92-30.12 172.62-30.1 171.96-29.18L171.96-29.18Q171.12-28.08 170.71-27.93 170.29-27.77 168.09-27.77L168.09-27.77Q165.98-27.77 165.59-27.86 165.19-27.95 165.23-28.43L165.23-28.43Q165.23-28.87 166.11-30.06 166.99-31.25 167.43-31.42L167.43-31.42Q168.4-31.73 167.7-32.12L167.7-32.12Q167.39-32.34 167.39-32.56L167.39-32.56Q167.48-32.92 168.18-33 168.88-33.09 172.57-33.13 176.26-33.18 176.9-33.24 177.54-33.31 177.67-33.62 177.8-33.93 176.84-34.96 175.87-35.99 174.64-36.91L174.64-36.91Q173.76-37.53 173.47-37.44 173.19-37.35 172.31-36.08L172.31-36.08Q171.39-34.76 170.86-34.5L170.86-34.5Q170.6-34.37 162.64-34.37L162.64-34.37Q161.81-34.37 160.44-34.37L160.44-34.37Q155.96-34.37 154.97-34.48 153.98-34.58 152.71-35.2L152.71-35.2Q152.23-35.46 151.92-35.6L151.92-35.6Q149.9-36.56 149.81-36.34L149.81-36.34Q149.77-36.25 149.81-35.99L149.81-35.99Q149.99-34.54 150.03-32.21 150.07-29.88 149.94-29.22L149.94-29.22Q149.85-28.7 149.94-27.95L149.94-27.95Q150.07-27.25 150.07-22.85 150.07-18.46 149.94-16.52L149.94-16.52Q149.33-5.01 145.81 1.98L145.81 1.98Q145.02 3.52 145.5 3.38L145.5 3.38Q146.25 3.21 148.14 0.7L148.14 0.7Q149.06-0.62 149.77-1.89L149.77-1.89Q152.14-6.15 152.95-11.01 153.76-15.86 153.85-25.62L153.85-25.62Q153.9-31.25 154.03-31.82L154.03-31.82Q154.2-32.96 155.17-33.13L155.17-33.13Q155.35-33.13 158.6-33.13L158.6-33.13Q162.07-33.13 162.64-32.96 163.21-32.78 163.21-31.68L163.21-31.68Q163.13-28.43 162.14-27.88 161.15-27.33 157.76-28.78L157.76-28.78Q156.23-29.44 156.09-29.31L156.09-29.31Q155.96-29.18 156.09-27.86L156.09-27.86Q156.71-20.96 156.31-14.55L156.31-14.55Q156.18-11.87 156.4-11.65L156.4-11.65Q156.88-11.16 158.44-11.62 160-12.08 160-12.74L160-12.74Q160-13.71 161.52-13.91 163.04-14.11 163.43-13.23L163.43-13.23Q163.65-12.88 163.65-7.43 163.65-1.98 163.43-1.63L163.43-1.63Q163.17-1.1 162.62-1.01 162.07-0.92 159.74-1.05L159.74-1.05Q158.29-1.1 158.25-0.97L158.25-0.97Q158.16-0.75 158.38-0.59 158.6-0.44 159.13-0.35L159.13-0.35Q162.03 0.31 162.33 3.12L162.33 3.12ZM170.73-15.25L170.73-15.25Q170.42-15.03 165.65-15.07 160.88-15.12 160.58-15.34L160.58-15.34Q160-15.69 160-17.64 160-19.6 160.58-19.95L160.58-19.95Q160.88-20.17 165.65-20.21 170.42-20.26 170.73-20.04L170.73-20.04Q171.3-19.69 171.3-17.64 171.3-15.6 170.73-15.25ZM170.64-21.62L170.64-21.62Q170.29-21.45 165.67-21.4 161.06-21.36 160.71-21.53L160.71-21.53Q160.05-21.84 160-23.84 159.96-25.84 160.58-26.24L160.58-26.24Q160.88-26.46 165.65-26.5 170.42-26.54 170.73-26.32L170.73-26.32Q171.34-25.93 171.32-23.93 171.3-21.93 170.64-21.62ZM141.42 3.03L141.42 3.03Q141.9 3.25 142.69 3.05 143.48 2.86 143.96 2.37L143.96 2.37Q145.77 0.57 144.18-5.19L144.18-5.19Q143.48-7.87 143.66-9.32L143.66-9.32Q143.83-10.85 144.45-13.03 145.06-15.21 147.79-23.91L147.79-23.91Q149.46-29 149.28-29.27L149.28-29.27Q149.24-29.31 149.11-29.36L149.11-29.36Q148.89-29.4 148.58-28.83 148.27-28.26 147.13-25.62L147.13-25.62Q146.47-24.04 145.28-21.36L145.28-21.36Q141.11-11.69 140.36-10.59L140.36-10.59Q139.88-9.93 139.13-9.98L139.13-9.98Q139.09-9.98 139-9.98L139-9.98Q138.78-9.98 138.65-9.98L138.65-9.98Q137.46-9.98 137.46-9.54L137.46-9.54Q137.46-9.18 138.34-9.01L138.34-9.01Q139.83-8.7 140.32-6.9 140.8-5.1 140.45-1.27L140.45-1.27Q140.23 0.88 140.41 1.78 140.58 2.68 141.42 3.03ZM151.22 0.83L151.22 0.83Q151.79 1.19 154.75-1.19 157.72-3.56 159.92-6.15L159.92-6.15Q160.88-7.38 161.46-7.51L161.46-7.51Q162.91-7.82 160.8-8.79L160.8-8.79Q160.36-9.01 158.73-9.84L158.73-9.84Q158.6-9.93 158.33-10.06L158.33-10.06Q157.94-10.28 157.76-10.35 157.59-10.42 157.43-10.52 157.28-10.63 157.19-10.46 157.1-10.28 157.08-10.24 157.06-10.2 156.97-9.8L156.97-9.8Q156.93-9.71 156.93-9.67L156.93-9.67Q156.27-7.25 154.78-4.64 153.28-2.02 151.57-0.13L151.57-0.13Q150.91 0.57 151.22 0.83ZM174.81 0.04L174.81 0.04Q175.96 0.62 176.86-0.15 177.76-0.92 177.63-2.42L177.63-2.42Q177.5-4.17 175.96-5.89 174.42-7.6 171.78-8.83L171.78-8.83Q169.54-9.98 169.54-9.54L169.54-9.54Q169.54-9.27 170.11-8.57L170.11-8.57Q172.92-4.88 173.94-1.23L173.94-1.23Q174.11-0.53 174.24-0.35 174.38-0.18 174.81 0.04ZM141.33-20.92L141.33-20.92Q143.17-20 143.92-21.45L143.92-21.45Q144.62-22.9 143.53-24.57L143.53-24.57Q143-25.36 142.21-25.88L142.21-25.88Q140.27-27.2 138.3-27.38L138.3-27.38Q137.42-27.42 137.46-27.07L137.46-27.07Q137.5-26.89 137.72-26.63L137.72-26.63Q139.75-24.52 140.58-21.97L140.58-21.97Q140.89-21.14 141.15-21.01L141.15-21.01Q141.2-20.96 141.33-20.92ZM145.02-30.45L145.02-30.45Q147.17-29.66 147.7-31.2L147.7-31.2Q148.23-32.74 146.78-34.58L146.78-34.58Q145.94-35.68 144.71-36.3L144.71-36.3Q141.72-37.79 140.84-37.4L140.84-37.4Q140.41-37.18 141.02-36.52L141.02-36.52Q143.48-33.66 144.23-31.38L144.23-31.38Q144.45-30.67 145.02-30.45Z" transform="translate(-2.399749994277954, 38.067909240722656)"></path></g> <!----> <!----> <!----> <!----> <!----> <!----> <!----></g></g> <g data-gra="path-slogan" fill-rule="" class="tp-slogan iconsvg-slogansvg" fill="#d981b5" transform="translate(29.79787826538086,47.92875289916992)"><!----> <!----> <g transform="scale(1, 1)"><g transform="scale(1)"><path d="M7.64-8.58L4.73-4.41L7.78 0L6.33 0L3.98-3.52L1.64 0L0.23 0L3.33-4.41L0.42-8.58L1.88-8.58L4.03-5.30L6.23-8.58L7.64-8.58ZM9.05-8.58L10.22-8.58L10.22 0L9.05 0L9.05-8.58ZM17.86 0L17.02-2.48L13.55-2.48L12.66 0L11.48 0L14.72-8.58L16.03-8.58L19.13 0L17.86 0ZM15.28-7.31L13.92-3.52L16.59-3.52L15.33-7.31L15.28-7.31ZM28.41-8.58L28.41 0L27.28 0L27.28-5.06Q27.28-5.77 27.28-7.22L27.28-7.22L24.84 0L23.67 0L21.28-7.22L21.23-7.22Q21.23-6.70 21.28-5.67L21.28-5.67Q21.28-5.16 21.28-5.06L21.28-5.06L21.28 0L20.11 0L20.11-8.58L21.80-8.58L24.28-1.31L26.72-8.58L28.41-8.58ZM31.41-1.03L36.56-1.03L36.56 0L30.23 0L30.23-8.58L36.47-8.58L36.47-7.59L31.41-7.59L31.41-4.92L36.09-4.92L36.09-3.89L31.41-3.89L31.41-1.03ZM39.47-8.58L43.78-1.64L43.78-8.58L44.91-8.58L44.91 0L43.59 0L39.23-6.94L39.19-6.94L39.19 0L38.06 0L38.06-8.58L39.47-8.58ZM57.19-6.05L57.19-6.05L56.06-6.05Q55.64-7.78 53.67-7.83L53.67-7.83Q50.95-7.69 50.86-4.36L50.86-4.36Q50.86-0.80 53.72-0.80L53.72-0.80Q55.69-0.84 56.16-3.19L56.16-3.19L57.28-3.19Q56.77 0.05 53.48 0.14L53.48 0.14Q49.73 0 49.64-4.31L49.64-4.31Q49.83-8.63 53.67-8.81L53.67-8.81Q56.72-8.72 57.19-6.05ZM59.81-5.06L64.31-5.06L64.31-8.58L65.48-8.58L65.48 0L64.31 0L64.31-3.98L59.81-3.98L59.81 0L58.64 0L58.64-8.58L59.81-8.58L59.81-5.06ZM72.94-3.19L72.94-8.58L74.11-8.58L74.11-3.05Q73.97 0.05 70.59 0.14L70.59 0.14Q67.45 0.05 67.31-2.86L67.31-2.86L67.31-8.58L68.48-8.58L68.48-3.19Q68.53-0.84 70.64-0.80L70.64-0.80Q72.94-0.84 72.94-3.19L72.94-3.19ZM77.30-8.58L81.61-1.64L81.61-8.58L82.73-8.58L82.73 0L81.42 0L77.06-6.94L77.02-6.94L77.02 0L75.89 0L75.89-8.58L77.30-8.58ZM91.45-8.58L88.22-3.47L88.22 0L87.05 0L87.05-3.47L83.81-8.58L85.17-8.58L87.61-4.45L90.09-8.58L91.45-8.58ZM98.16-3.19L98.16-8.58L99.33-8.58L99.33-3.05Q99.19 0.05 95.81 0.14L95.81 0.14Q92.67 0.05 92.53-2.86L92.53-2.86L92.53-8.58L93.70-8.58L93.70-3.19Q93.75-0.84 95.86-0.80L95.86-0.80Q98.16-0.84 98.16-3.19L98.16-3.19ZM106.78 0L105.94-2.48L102.47-2.48L101.58 0L100.41 0L103.64-8.58L104.95-8.58L108.05 0L106.78 0ZM104.20-7.31L102.84-3.52L105.52-3.52L104.25-7.31L104.20-7.31ZM110.48-8.58L114.80-1.64L114.80-8.58L115.92-8.58L115.92 0L114.61 0L110.25-6.94L110.20-6.94L110.20 0L109.08 0L109.08-8.58L110.48-8.58Z" transform="translate(-0.234375, 8.8125)"></path></g></g></g></g></g><defs v-gra="od"></defs></svg>